<svg xmlns="http://www.w3.org/2000/svg" xmlns:xlink="http://www.w3.org/1999/xlink" contentStyleType="text/css" data-diagram-type="CLASS" height="1265px" preserveAspectRatio="none" style="width:973px;height:1265px;background:#FFFFFF;" version="1.1" viewBox="0 0 973 1265" width="973px" zoomAndPan="magnify"><defs/><g><!--class USER--><g class="entity" data-entity="USER" data-source-line="13" data-uid="ent0002" id="entity_USER"><rect fill="#FFFFFF" height="210.9688" rx="4" ry="4" style="stroke:#000000;stroke-width:0.5;" width="246.9033" x="7" y="645.85"/><ellipse cx="107.3481" cy="661.85" fill="#ADD1B2" rx="11" ry="11" style="stroke:#181818;stroke-width:1;"/><path d="M111.4575,667.85 L103.7388,667.85 L103.7388,655.4594 L111.4575,655.4594 L111.4575,657.6156 L106.1919,657.6156 L106.1919,660.2875 L110.9575,660.2875 L110.9575,662.4438 L106.1919,662.4438 L106.1919,665.6938 L111.4575,665.6938 L111.4575,667.85 Z " fill="#000000"/><text fill="#000000" font-family="sans-serif" font-size="14" lengthAdjust="spacing" textLength="37.707" x="127.8481" y="666.6967">USER</text><line style="stroke:#000000;stroke-width:0.5;" x1="8" x2="252.9033" y1="677.85" y2="677.85"/><ellipse cx="18" cy="691.4984" fill="#000000" rx="3" ry="3" style="stroke:#000000;stroke-width:1;"/><text fill="#000000" font-family="sans-serif" font-size="14" lengthAdjust="spacing" textLength="101.001" x="27" y="694.8451">id : UUID &#171;PK&#187;</text><line style="stroke:#000000;stroke-width:1;" x1="8" x2="252.9033" y1="702.1469" y2="702.1469"/><text fill="#000000" font-family="sans-serif" font-size="14" lengthAdjust="spacing" textLength="159.4551" x="13" y="719.142">name : VARCHAR(120)</text><text fill="#000000" font-family="sans-serif" font-size="14" lengthAdjust="spacing" textLength="234.9033" x="13" y="735.4389">email : VARCHAR(254) &#171;UNIQUE&#187;</text><text fill="#000000" font-family="sans-serif" font-size="14" lengthAdjust="spacing" textLength="227.083" x="13" y="751.7357">password_hash : VARCHAR(255)</text><text fill="#000000" font-family="sans-serif" font-size="14" lengthAdjust="spacing" textLength="231.1982" x="13" y="768.0326">phone : VARCHAR(32) &#171;UNIQUE&#187;</text><text fill="#000000" font-family="sans-serif" font-size="14" lengthAdjust="spacing" textLength="185.6299" x="13" y="784.3295">phone_verified : BOOLEAN</text><text fill="#000000" font-family="sans-serif" font-size="14" lengthAdjust="spacing" textLength="180.4277" x="13" y="800.6264">email_verified : BOOLEAN</text><text fill="#000000" font-family="sans-serif" font-size="14" lengthAdjust="spacing" textLength="142.6934" x="13" y="816.9232">is_active : BOOLEAN</text><text fill="#000000" font-family="sans-serif" font-size="14" lengthAdjust="spacing" textLength="169.4629" x="13" y="833.2201">created_at : TIMESTAMP</text><text fill="#000000" font-family="sans-serif" font-size="14" lengthAdjust="spacing" textLength="174.043" x="13" y="849.517">updated_at : TIMESTAMP</text></g><!--class ADDRESS--><g class="entity" data-entity="ADDRESS" data-source-line="27" data-uid="ent0003" id="entity_ADDRESS"><rect fill="#FFFFFF" height="276.1563" rx="4" ry="4" style="stroke:#000000;stroke-width:0.5;" width="209.5313" x="571.24" y="244.26"/><ellipse cx="638.0134" cy="260.26" fill="#ADD1B2" rx="11" ry="11" style="stroke:#181818;stroke-width:1;"/><path d="M642.1228,266.26 L634.4041,266.26 L634.4041,253.8694 L642.1228,253.8694 L642.1228,256.0256 L636.8572,256.0256 L636.8572,258.6975 L641.6228,258.6975 L641.6228,260.8538 L636.8572,260.8538 L636.8572,264.1038 L642.1228,264.1038 L642.1228,266.26 Z " fill="#000000"/><text fill="#000000" font-family="sans-serif" font-size="14" lengthAdjust="spacing" textLength="67.4844" x="658.5134" y="265.1067">ADDRESS</text><line style="stroke:#000000;stroke-width:0.5;" x1="572.24" x2="779.7713" y1="276.26" y2="276.26"/><ellipse cx="582.24" cy="289.9084" fill="#000000" rx="3" ry="3" style="stroke:#000000;stroke-width:1;"/><text fill="#000000" font-family="sans-serif" font-size="14" lengthAdjust="spacing" textLength="101.001" x="591.24" y="293.2551">id : UUID &#171;PK&#187;</text><line style="stroke:#000000;stroke-width:1;" x1="572.24" x2="779.7713" y1="300.5569" y2="300.5569"/><text fill="#000000" font-family="sans-serif" font-size="14" lengthAdjust="spacing" textLength="197.5313" x="577.24" y="317.552">user_id : UUID &#171;FK USER.id&#187;</text><text fill="#000000" font-family="sans-serif" font-size="14" lengthAdjust="spacing" textLength="144.7031" x="577.24" y="333.8489">label : VARCHAR(40)</text><text fill="#000000" font-family="sans-serif" font-size="14" lengthAdjust="spacing" textLength="153.9248" x="577.24" y="350.1457">line1 : VARCHAR(160)</text><text fill="#000000" font-family="sans-serif" font-size="14" lengthAdjust="spacing" textLength="153.9248" x="577.24" y="366.4426">line2 : VARCHAR(160)</text><text fill="#000000" font-family="sans-serif" font-size="14" lengthAdjust="spacing" textLength="136.2061" x="577.24" y="382.7395">city : VARCHAR(80)</text><text fill="#000000" font-family="sans-serif" font-size="14" lengthAdjust="spacing" textLength="155.4287" x="577.24" y="399.0364">region : VARCHAR(80)</text><text fill="#000000" font-family="sans-serif" font-size="14" lengthAdjust="spacing" textLength="164.3838" x="577.24" y="415.3332">country : VARCHAR(80)</text><text fill="#000000" font-family="sans-serif" font-size="14" lengthAdjust="spacing" textLength="194.3115" x="577.24" y="431.6301">postal_code : VARCHAR(20)</text><text fill="#000000" font-family="sans-serif" font-size="14" lengthAdjust="spacing" textLength="163.502" x="577.24" y="447.927">latitude : DECIMAL(9,6)</text><text fill="#000000" font-family="sans-serif" font-size="14" lengthAdjust="spacing" textLength="175.7588" x="577.24" y="464.2239">longitude : DECIMAL(9,6)</text><text fill="#000000" font-family="sans-serif" font-size="14" lengthAdjust="spacing" textLength="149.3994" x="577.24" y="480.5207">is_default : BOOLEAN</text><text fill="#000000" font-family="sans-serif" font-size="14" lengthAdjust="spacing" textLength="169.4629" x="577.24" y="496.8176">created_at : TIMESTAMP</text><text fill="#000000" font-family="sans-serif" font-size="14" lengthAdjust="spacing" textLength="174.043" x="577.24" y="513.1145">updated_at : TIMESTAMP</text></g><!--class ROLE--><g class="entity" data-entity="ROLE" data-source-line="45" data-uid="ent0004" id="entity_ROLE"><rect fill="#FFFFFF" height="96.8906" rx="4" ry="4" style="stroke:#000000;stroke-width:0.5;" width="239.0898" x="10.91" y="1153.89"/><ellipse cx="107.5086" cy="1169.89" fill="#ADD1B2" rx="11" ry="11" style="stroke:#181818;stroke-width:1;"/><path d="M111.618,1175.89 L103.8993,1175.89 L103.8993,1163.4994 L111.618,1163.4994 L111.618,1165.6556 L106.3524,1165.6556 L106.3524,1168.3275 L111.118,1168.3275 L111.118,1170.4838 L106.3524,1170.4838 L106.3524,1173.7338 L111.618,1173.7338 L111.618,1175.89 Z " fill="#000000"/><text fill="#000000" font-family="sans-serif" font-size="14" lengthAdjust="spacing" textLength="37.3926" x="128.0086" y="1174.7367">ROLE</text><line style="stroke:#000000;stroke-width:0.5;" x1="11.91" x2="248.9998" y1="1185.89" y2="1185.89"/><ellipse cx="21.91" cy="1199.5384" fill="#000000" rx="3" ry="3" style="stroke:#000000;stroke-width:1;"/><text fill="#000000" font-family="sans-serif" font-size="14" lengthAdjust="spacing" textLength="134.8936" x="30.91" y="1202.8851">id : SMALLINT &#171;PK&#187;</text><line style="stroke:#000000;stroke-width:1;" x1="11.91" x2="248.9998" y1="1210.1869" y2="1210.1869"/><text fill="#000000" font-family="sans-serif" font-size="14" lengthAdjust="spacing" textLength="227.0898" x="16.91" y="1227.182">name : VARCHAR(48) &#171;UNIQUE&#187;</text><text fill="#000000" font-family="sans-serif" font-size="14" lengthAdjust="spacing" textLength="197.5928" x="16.91" y="1243.4789">description : VARCHAR(255)</text></g><!--class USER_ROLE--><g class="entity" data-entity="USER_ROLE" data-source-line="52" data-uid="ent0005" id="entity_USER_ROLE"><rect fill="#FFFFFF" height="113.1875" rx="4" ry="4" style="stroke:#000000;stroke-width:0.5;" width="253.3975" x="549.3" y="1145.74"/><ellipse cx="630.6989" cy="1161.74" fill="#ADD1B2" rx="11" ry="11" style="stroke:#181818;stroke-width:1;"/><path d="M634.8083,1167.74 L627.0896,1167.74 L627.0896,1155.3494 L634.8083,1155.3494 L634.8083,1157.5056 L629.5427,1157.5056 L629.5427,1160.1775 L634.3083,1160.1775 L634.3083,1162.3338 L629.5427,1162.3338 L629.5427,1165.5838 L634.8083,1165.5838 L634.8083,1167.74 Z " fill="#000000"/><text fill="#000000" font-family="sans-serif" font-size="14" lengthAdjust="spacing" textLength="82.0996" x="651.1989" y="1166.5867">USER_ROLE</text><line style="stroke:#000000;stroke-width:0.5;" x1="550.3" x2="801.6975" y1="1177.74" y2="1177.74"/><ellipse cx="560.3" cy="1191.3884" fill="#000000" rx="3" ry="3" style="stroke:#000000;stroke-width:1;"/><text fill="#000000" font-family="sans-serif" font-size="14" lengthAdjust="spacing" textLength="197.5313" x="569.3" y="1194.7351">user_id : UUID &#171;FK USER.id&#187;</text><ellipse cx="560.3" cy="1207.6853" fill="#000000" rx="3" ry="3" style="stroke:#000000;stroke-width:1;"/><text fill="#000000" font-family="sans-serif" font-size="14" lengthAdjust="spacing" textLength="227.3975" x="569.3" y="1211.032">role_id : SMALLINT &#171;FK ROLE.id&#187;</text><line style="stroke:#000000;stroke-width:1;" x1="550.3" x2="801.6975" y1="1218.3338" y2="1218.3338"/><text fill="#000000" font-family="sans-serif" font-size="14" lengthAdjust="spacing" textLength="170.9121" x="555.3" y="1235.3289">granted_at : TIMESTAMP</text><text fill="#000000" font-family="sans-serif" font-size="14" lengthAdjust="spacing" textLength="188.8291" x="555.3" y="1251.6257">&#171;UNIQUE(user_id, role_id)&#187;</text></g><!--class LOGIN_SESSION--><g class="entity" data-entity="LOGIN_SESSION" data-source-line="60" data-uid="ent0006" id="entity_LOGIN_SESSION"><rect fill="#FFFFFF" height="178.375" rx="4" ry="4" style="stroke:#000000;stroke-width:0.5;" width="580.1963" x="385.9" y="555.15"/><ellipse cx="615.5499" cy="571.15" fill="#ADD1B2" rx="11" ry="11" style="stroke:#181818;stroke-width:1;"/><path d="M619.6593,577.15 L611.9405,577.15 L611.9405,564.7594 L619.6593,564.7594 L619.6593,566.9156 L614.3937,566.9156 L614.3937,569.5875 L619.1593,569.5875 L619.1593,571.7438 L614.3937,571.7438 L614.3937,574.9938 L619.6593,574.9938 L619.6593,577.15 Z " fill="#000000"/><text fill="#000000" font-family="sans-serif" font-size="14" lengthAdjust="spacing" textLength="112.3965" x="636.0499" y="575.9967">LOGIN_SESSION</text><line style="stroke:#000000;stroke-width:0.5;" x1="386.9" x2="965.0963" y1="587.15" y2="587.15"/><ellipse cx="396.9" cy="600.7984" fill="#000000" rx="3" ry="3" style="stroke:#000000;stroke-width:1;"/><text fill="#000000" font-family="sans-serif" font-size="14" lengthAdjust="spacing" textLength="101.001" x="405.9" y="604.1451">id : UUID &#171;PK&#187;</text><line style="stroke:#000000;stroke-width:1;" x1="386.9" x2="965.0963" y1="611.4469" y2="611.4469"/><text fill="#000000" font-family="sans-serif" font-size="14" lengthAdjust="spacing" textLength="197.5313" x="391.9" y="628.442">user_id : UUID &#171;FK USER.id&#187;</text><text fill="#000000" font-family="sans-serif" font-size="14" lengthAdjust="spacing" textLength="195.665" x="391.9" y="644.7389">refresh_jti : UUID &#171;UNIQUE&#187;</text><text fill="#000000" font-family="sans-serif" font-size="14" lengthAdjust="spacing" textLength="239.0459" x="391.9" y="661.0357">client_fingerprint : VARCHAR(128)</text><text fill="#000000" font-family="sans-serif" font-size="14" lengthAdjust="spacing" textLength="568.1963" x="391.9" y="677.3326">status : VARCHAR(16)    ' ACTIVE, REVOKED, ROTATED, EXPIRED, COMPROMISED</text><text fill="#000000" font-family="sans-serif" font-size="14" lengthAdjust="spacing" textLength="160.6787" x="391.9" y="693.6295">issued_at : TIMESTAMP</text><text fill="#000000" font-family="sans-serif" font-size="14" lengthAdjust="spacing" textLength="167.166" x="391.9" y="709.9264">expires_at : TIMESTAMP</text><text fill="#000000" font-family="sans-serif" font-size="14" lengthAdjust="spacing" textLength="167.207" x="391.9" y="726.2232">rotated_at : TIMESTAMP</text></g><!--class ACTION_TOKEN--><g class="entity" data-entity="ACTION_TOKEN" data-source-line="72" data-uid="ent0007" id="entity_ACTION_TOKEN"><rect fill="#FFFFFF" height="178.375" rx="4" ry="4" style="stroke:#000000;stroke-width:0.5;" width="441.6045" x="455.2" y="768.15"/><ellipse cx="617.4544" cy="784.15" fill="#ADD1B2" rx="11" ry="11" style="stroke:#181818;stroke-width:1;"/><path d="M621.5638,790.15 L613.845,790.15 L613.845,777.7594 L621.5638,777.7594 L621.5638,779.9156 L616.2981,779.9156 L616.2981,782.5875 L621.0638,782.5875 L621.0638,784.7438 L616.2981,784.7438 L616.2981,787.9938 L621.5638,787.9938 L621.5638,790.15 Z " fill="#000000"/><text fill="#000000" font-family="sans-serif" font-size="14" lengthAdjust="spacing" textLength="108.5957" x="637.9544" y="788.9967">ACTION_TOKEN</text><line style="stroke:#000000;stroke-width:0.5;" x1="456.2" x2="895.8045" y1="800.15" y2="800.15"/><ellipse cx="466.2" cy="813.7984" fill="#000000" rx="3" ry="3" style="stroke:#000000;stroke-width:1;"/><text fill="#000000" font-family="sans-serif" font-size="14" lengthAdjust="spacing" textLength="101.001" x="475.2" y="817.1451">id : UUID &#171;PK&#187;</text><line style="stroke:#000000;stroke-width:1;" x1="456.2" x2="895.8045" y1="824.4469" y2="824.4469"/><text fill="#000000" font-family="sans-serif" font-size="14" lengthAdjust="spacing" textLength="197.5313" x="461.2" y="841.442">user_id : UUID &#171;FK USER.id&#187;</text><text fill="#000000" font-family="sans-serif" font-size="14" lengthAdjust="spacing" textLength="429.6045" x="461.2" y="857.7389">purpose : VARCHAR(32)   ' VERIFY_EMAIL, RESET_PASSWORD</text><text fill="#000000" font-family="sans-serif" font-size="14" lengthAdjust="spacing" textLength="273.8271" x="461.2" y="874.0357">method  : VARCHAR(16)   ' LINK or OTP</text><text fill="#000000" font-family="sans-serif" font-size="14" lengthAdjust="spacing" textLength="200.0195" x="461.2" y="890.3326">token_hash : VARCHAR(255)</text><text fill="#000000" font-family="sans-serif" font-size="14" lengthAdjust="spacing" textLength="167.166" x="461.2" y="906.6295">expires_at : TIMESTAMP</text><text fill="#000000" font-family="sans-serif" font-size="14" lengthAdjust="spacing" textLength="115.623" x="461.2" y="922.9264">used : BOOLEAN</text><text fill="#000000" font-family="sans-serif" font-size="14" lengthAdjust="spacing" textLength="149.4951" x="461.2" y="939.2232">used_at : TIMESTAMP</text></g><!--class LOGIN_ATTEMPT--><g class="entity" data-entity="LOGIN_ATTEMPT" data-source-line="84" data-uid="ent0008" id="entity_LOGIN_ATTEMPT"><rect fill="#FFFFFF" height="129.4844" rx="4" ry="4" style="stroke:#000000;stroke-width:0.5;" width="410.5078" x="470.75" y="981.59"/><ellipse cx="613.8193" cy="997.59" fill="#ADD1B2" rx="11" ry="11" style="stroke:#181818;stroke-width:1;"/><path d="M617.9287,1003.59 L610.21,1003.59 L610.21,991.1994 L617.9287,991.1994 L617.9287,993.3556 L612.6631,993.3556 L612.6631,996.0275 L617.4287,996.0275 L617.4287,998.1838 L612.6631,998.1838 L612.6631,1001.4338 L617.9287,1001.4338 L617.9287,1003.59 Z " fill="#000000"/><text fill="#000000" font-family="sans-serif" font-size="14" lengthAdjust="spacing" textLength="115.8691" x="634.3193" y="1002.4367">LOGIN_ATTEMPT</text><line style="stroke:#000000;stroke-width:0.5;" x1="471.75" x2="880.2578" y1="1013.59" y2="1013.59"/><ellipse cx="481.75" cy="1027.2384" fill="#000000" rx="3" ry="3" style="stroke:#000000;stroke-width:1;"/><text fill="#000000" font-family="sans-serif" font-size="14" lengthAdjust="spacing" textLength="101.001" x="490.75" y="1030.5851">id : UUID &#171;PK&#187;</text><line style="stroke:#000000;stroke-width:1;" x1="471.75" x2="880.2578" y1="1037.8869" y2="1037.8869"/><text fill="#000000" font-family="sans-serif" font-size="14" lengthAdjust="spacing" textLength="398.5078" x="476.75" y="1054.882">user_id : UUID &#171;FK USER.id&#187;  ' nullable if email not found</text><text fill="#000000" font-family="sans-serif" font-size="14" lengthAdjust="spacing" textLength="220.2061" x="476.75" y="1071.1789">email_entered : VARCHAR(254)</text><text fill="#000000" font-family="sans-serif" font-size="14" lengthAdjust="spacing" textLength="136.7188" x="476.75" y="1087.4757">success : BOOLEAN</text><text fill="#000000" font-family="sans-serif" font-size="14" lengthAdjust="spacing" textLength="189.5127" x="476.75" y="1103.7726">attempted_at : TIMESTAMP</text></g><!--class SOCIAL_IDENTITY--><g class="entity" data-entity="SOCIAL_IDENTITY" data-source-line="93" data-uid="ent0009" id="entity_SOCIAL_IDENTITY"><rect fill="#FFFFFF" height="202.6719" rx="4" ry="4" style="stroke:#000000;stroke-width:0.5;" width="417.2344" x="467.38" y="7"/><ellipse cx="610.6476" cy="23" fill="#ADD1B2" rx="11" ry="11" style="stroke:#181818;stroke-width:1;"/><path d="M614.757,29 L607.0382,29 L607.0382,16.6094 L614.757,16.6094 L614.757,18.7656 L609.4913,18.7656 L609.4913,21.4375 L614.257,21.4375 L614.257,23.5938 L609.4913,23.5938 L609.4913,26.8438 L614.757,26.8438 L614.757,29 Z " fill="#000000"/><text fill="#000000" font-family="sans-serif" font-size="14" lengthAdjust="spacing" textLength="122.1992" x="631.1476" y="27.8467">SOCIAL_IDENTITY</text><line style="stroke:#000000;stroke-width:0.5;" x1="468.38" x2="883.6144" y1="39" y2="39"/><ellipse cx="478.38" cy="52.6484" fill="#000000" rx="3" ry="3" style="stroke:#000000;stroke-width:1;"/><text fill="#000000" font-family="sans-serif" font-size="14" lengthAdjust="spacing" textLength="101.001" x="487.38" y="55.9951">id : UUID &#171;PK&#187;</text><line style="stroke:#000000;stroke-width:1;" x1="468.38" x2="883.6144" y1="63.2969" y2="63.2969"/><text fill="#000000" font-family="sans-serif" font-size="14" lengthAdjust="spacing" textLength="197.5313" x="473.38" y="80.292">user_id : UUID &#171;FK USER.id&#187;</text><text fill="#000000" font-family="sans-serif" font-size="14" lengthAdjust="spacing" textLength="405.2344" x="473.38" y="96.5889">provider : VARCHAR(32)         ' google, github, facebook...</text><text fill="#000000" font-family="sans-serif" font-size="14" lengthAdjust="spacing" textLength="373.9326" x="473.38" y="112.8857">provider_user_id : VARCHAR(128) ' sub from provider</text><text fill="#000000" font-family="sans-serif" font-size="14" lengthAdjust="spacing" textLength="245.0684" x="473.38" y="129.1826">email_at_provider : VARCHAR(254)</text><text fill="#000000" font-family="sans-serif" font-size="14" lengthAdjust="spacing" textLength="267.1348" x="473.38" y="145.4795">email_verified_at_provider : BOOLEAN</text><text fill="#000000" font-family="sans-serif" font-size="14" lengthAdjust="spacing" textLength="158.0879" x="473.38" y="161.7764">linked_at : TIMESTAMP</text><text fill="#000000" font-family="sans-serif" font-size="14" lengthAdjust="spacing" textLength="154.9297" x="473.38" y="178.0732">is_primary : BOOLEAN</text><line style="stroke:#000000;stroke-width:1;" x1="468.38" x2="883.6144" y1="185.375" y2="185.375"/><text fill="#000000" font-family="sans-serif" font-size="14" lengthAdjust="spacing" textLength="266.5059" x="473.38" y="202.3701">&#171;UNIQUE(provider, provider_user_id)&#187;</text></g><!--link USER to ADDRESS--><g class="link" data-entity-1="USER" data-entity-2="ADDRESS" data-source-line="110" data-uid="lnk10" id="link_USER_ADDRESS"><path codeLine="110" d="M252.9152,640.3734 C295.1552,604.0434 338.24,569.64 385.9,537.34 C444.59,497.55 498.48,467.8792 554.89,439.5892" fill="none" id="USER-ADDRESS" style="stroke:#000000;stroke-width:1;"/><line style="stroke:#000000;stroke-width:1;" x1="252.4909" x2="247.2743" y1="646.0143" y2="639.9491"/><line style="stroke:#000000;stroke-width:1;" x1="254.7654" x2="249.5488" y1="644.0581" y2="637.9929"/><line style="stroke:#000000;stroke-width:1;" x1="252.9152" x2="246.85" y1="640.3734" y2="645.59"/><line style="stroke:#000000;stroke-width:1;" x1="563.8289" x2="568.2903" y1="435.1063" y2="426.1567"/><line style="stroke:#000000;stroke-width:1;" x1="563.8289" x2="573.6697" y1="435.1063" y2="436.8833"/><line style="stroke:#000000;stroke-width:1;" x1="563.8289" x2="570.98" y1="435.1063" y2="431.52"/><ellipse cx="558.4656" cy="437.7961" fill="none" rx="4" ry="4" style="stroke:#000000;stroke-width:1;"/><text fill="#000000" font-family="sans-serif" font-size="13" lengthAdjust="spacing" textLength="22.9785" x="308.9" y="559.4069">has</text></g><!--link USER to USER_ROLE--><g class="link" data-entity-1="USER" data-entity-2="USER_ROLE" data-source-line="111" data-uid="lnk11" id="link_USER_USER_ROLE"><path codeLine="111" d="M180.1283,864.2348 C222.1183,949.9848 289.24,1060.22 385.9,1128.34 C433.44,1161.83 477.1738,1176.8871 531.1838,1186.9371" fill="none" id="USER-USER_ROLE" style="stroke:#000000;stroke-width:1;"/><line style="stroke:#000000;stroke-width:1;" x1="174.7767" x2="181.9615" y1="862.4015" y2="858.8833"/><line style="stroke:#000000;stroke-width:1;" x1="176.0961" x2="183.2809" y1="865.0959" y2="861.5776"/><line style="stroke:#000000;stroke-width:1;" x1="180.1283" x2="176.61" y1="864.2348" y2="857.05"/><line style="stroke:#000000;stroke-width:1;" x1="541.015" x2="549.9776" y1="1188.7665" y2="1184.3313"/><line style="stroke:#000000;stroke-width:1;" x1="541.015" x2="547.7824" y1="1188.7665" y2="1196.1287"/><line style="stroke:#000000;stroke-width:1;" x1="541.015" x2="548.88" y1="1188.7665" y2="1190.23"/><ellipse cx="535.1163" cy="1187.6689" fill="none" rx="4" ry="4" style="stroke:#000000;stroke-width:1;"/><text fill="#000000" font-family="sans-serif" font-size="13" lengthAdjust="spacing" textLength="57.8652" x="291.4" y="1030.4069">assigned</text></g><!--link ROLE to USER_ROLE--><g class="link" data-entity-1="ROLE" data-entity-2="USER_ROLE" data-source-line="112" data-uid="lnk12" id="link_ROLE_USER_ROLE"><path codeLine="112" d="M258.4,1202.34 C346.82,1202.34 441.22,1202.34 531.23,1202.34" fill="none" id="ROLE-USER_ROLE" style="stroke:#000000;stroke-width:1;"/><line style="stroke:#000000;stroke-width:1;" x1="254.4" x2="254.4" y1="1206.34" y2="1198.34"/><line style="stroke:#000000;stroke-width:1;" x1="257.4" x2="257.4" y1="1206.34" y2="1198.34"/><line style="stroke:#000000;stroke-width:1;" x1="258.4" x2="250.4" y1="1202.34" y2="1202.34"/><line style="stroke:#000000;stroke-width:1;" x1="541.23" x2="549.23" y1="1202.34" y2="1196.34"/><line style="stroke:#000000;stroke-width:1;" x1="541.23" x2="549.23" y1="1202.34" y2="1208.34"/><line style="stroke:#000000;stroke-width:1;" x1="541.23" x2="549.23" y1="1202.34" y2="1202.34"/><ellipse cx="535.23" cy="1202.34" fill="none" rx="4" ry="4" style="stroke:#000000;stroke-width:1;"/><text fill="#000000" font-family="sans-serif" font-size="13" lengthAdjust="spacing" textLength="55.0278" x="292.4" y="1198.4069">contains</text></g><!--link USER to LOGIN_SESSION--><g class="link" data-entity-1="USER" data-entity-2="LOGIN_SESSION" data-source-line="113" data-uid="lnk13" id="link_USER_LOGIN_SESSION"><path codeLine="113" d="M261.9594,725.6451 C301.4894,717.8651 321.6092,713.908 367.9192,704.788" fill="none" id="USER-LOGIN_SESSION" style="stroke:#000000;stroke-width:1;"/><line style="stroke:#000000;stroke-width:1;" x1="258.8071" x2="257.2623" y1="730.3423" y2="722.4929"/><line style="stroke:#000000;stroke-width:1;" x1="261.7507" x2="260.2058" y1="729.763" y2="721.9135"/><line style="stroke:#000000;stroke-width:1;" x1="261.9594" x2="254.11" y1="725.6451" y2="727.19"/><line style="stroke:#000000;stroke-width:1;" x1="377.7308" x2="384.4207" y1="702.8558" y2="695.4231"/><line style="stroke:#000000;stroke-width:1;" x1="377.7308" x2="386.7393" y1="702.8558" y2="707.1969"/><line style="stroke:#000000;stroke-width:1;" x1="377.7308" x2="385.58" y1="702.8558" y2="701.31"/><ellipse cx="371.8438" cy="704.0151" fill="none" rx="4" ry="4" style="stroke:#000000;stroke-width:1;"/><text fill="#000000" font-family="sans-serif" font-size="13" lengthAdjust="spacing" textLength="48.3247" x="295.9" y="703.4069">creates</text></g><!--link USER to ACTION_TOKEN--><g class="link" data-entity-1="USER" data-entity-2="ACTION_TOKEN" data-source-line="114" data-uid="lnk14" id="link_USER_ACTION_TOKEN"><path codeLine="114" d="M261.9622,776.7904 C321.2222,788.3404 368.6531,797.5934 437.0831,810.9434" fill="none" id="USER-ACTION_TOKEN" style="stroke:#000000;stroke-width:1;"/><line style="stroke:#000000;stroke-width:1;" x1="257.2709" x2="258.8013" y1="779.9513" y2="772.0991"/><line style="stroke:#000000;stroke-width:1;" x1="260.2155" x2="261.7459" y1="780.5253" y2="772.673"/><line style="stroke:#000000;stroke-width:1;" x1="261.9622" x2="254.11" y1="776.7904" y2="775.26"/><line style="stroke:#000000;stroke-width:1;" x1="446.898" x2="455.8989" y1="812.8582" y2="808.501"/><line style="stroke:#000000;stroke-width:1;" x1="446.898" x2="453.6011" y1="812.8582" y2="820.279"/><line style="stroke:#000000;stroke-width:1;" x1="446.898" x2="454.75" y1="812.8582" y2="814.39"/><ellipse cx="441.009" cy="811.7093" fill="none" rx="4" ry="4" style="stroke:#000000;stroke-width:1;"/><text fill="#000000" font-family="sans-serif" font-size="13" lengthAdjust="spacing" textLength="54.5645" x="292.9" y="778.4069">receives</text></g><!--link USER to LOGIN_ATTEMPT--><g class="link" data-entity-1="USER" data-entity-2="LOGIN_ATTEMPT" data-source-line="115" data-uid="lnk15" id="link_USER_LOGIN_ATTEMPT"><path codeLine="115" d="M243.3927,862.561 C286.5027,900.831 332.69,936.18 385.9,964.34 C412.3,978.3 424.3084,984.3347 453.5084,994.2647" fill="none" id="USER-LOGIN_ATTEMPT" style="stroke:#000000;stroke-width:1;"/><line style="stroke:#000000;stroke-width:1;" x1="237.7458" x2="243.0569" y1="862.8969" y2="856.9142"/><line style="stroke:#000000;stroke-width:1;" x1="239.9894" x2="245.3004" y1="864.8885" y2="858.9058"/><line style="stroke:#000000;stroke-width:1;" x1="243.3927" x2="237.41" y1="862.561" y2="857.25"/><line style="stroke:#000000;stroke-width:1;" x1="462.976" x2="472.4818" y1="997.4843" y2="994.3795"/><line style="stroke:#000000;stroke-width:1;" x1="462.976" x2="468.6182" y1="997.4843" y2="1005.7405"/><line style="stroke:#000000;stroke-width:1;" x1="462.976" x2="470.55" y1="997.4843" y2="1000.06"/><ellipse cx="457.2955" cy="995.5525" fill="none" rx="4" ry="4" style="stroke:#000000;stroke-width:1;"/><text fill="#000000" font-family="sans-serif" font-size="13" lengthAdjust="spacing" textLength="26.5903" x="306.9" y="894.4069">logs</text></g><!--link USER to SOCIAL_IDENTITY--><g class="link" data-entity-1="USER" data-entity-2="SOCIAL_IDENTITY" data-source-line="116" data-uid="lnk16" id="link_USER_SOCIAL_IDENTITY"><path codeLine="116" d="M160.3187,637.8055 C194.7387,520.8555 263.1,341.55 385.9,226.34 C409.43,204.27 421.572,194.2126 451.012,179.3026" fill="none" id="USER-SOCIAL_IDENTITY" style="stroke:#000000;stroke-width:1;"/><line style="stroke:#000000;stroke-width:1;" x1="163.0266" x2="155.3521" y1="642.7721" y2="640.5134"/><line style="stroke:#000000;stroke-width:1;" x1="163.8736" x2="156.1991" y1="639.8942" y2="637.6354"/><line style="stroke:#000000;stroke-width:1;" x1="160.3187" x2="158.06" y1="637.8055" y2="645.48"/><line style="stroke:#000000;stroke-width:1;" x1="459.9331" x2="464.3591" y1="174.7845" y2="165.8173"/><line style="stroke:#000000;stroke-width:1;" x1="459.9331" x2="469.7809" y1="174.7845" y2="176.5227"/><line style="stroke:#000000;stroke-width:1;" x1="459.9331" x2="467.07" y1="174.7845" y2="171.17"/><ellipse cx="454.5804" cy="177.4954" fill="none" rx="4" ry="4" style="stroke:#000000;stroke-width:1;"/><text fill="#000000" font-family="sans-serif" font-size="13" lengthAdjust="spacing" textLength="70.9541" x="284.9" y="256.4069">linked with</text></g><!--SRC=[hLRVRziu37xFNo7qfSsG5bkl6th1Re2RU9lH9CxPJdTxCXIRiNLn94EIspjizxyVfVoo4pTzwFmGA1yfYln8aIfWeOaMHB8iroHb4XBD1E-e9UCbbNH5fAXucWZ9GPBR6gvoceednZEoe8M2cYGfg5BaHuUGEveiCsjW80eXoRUSQK3SaL8yhQ6x0dMCgf0fo3hsNwTpJlve_r3YSiqq0qKkD9qNeBedjC7e_alEPg4Rd16gY5bO3zyGbf8-cSsy8VduSNh_wHE2bvVum-aAKFBW18ElJd3nxlfj5r5OKLRKuEltDrtSE9juVyvSkxd4u9ymc3YdAczelZS6obpmkjtVhW_t6uNu4IHRC32-tVd-o7KcsyFRHKp553Ft20qqaK0rf37L24VUs0qZPpn5GLMcRGAaV4kLCnm6RXXQjZRh5mYh5CYuBlnyRtc-OgbLAkWSwjJTM48Bnk5TdUSFE_Zw64wCRtlqre8ICYpP8pZ1kjFoMBqKIjCYJaHQpyCwlGN5w2ih6Be3R-oCBdxlVR0ImRDdHCXz2WjQ5VfNaH-W3SkyMTHf3_7OaJU9JjVgpUr1JQMW4ibAtQJ9LcJjL9EiU7Vqxj_c_9VI-mOxHG7nePkePOnijQoxcQIybPcjqnURmtfRcrtSNFDqv7_n9d68DUdv4-jj0tbbeKfOI51v_BTcUvqQcqd1q95uWRqFP2aPruq-SMjg0ajCLwfHm5s2tpbn1f7tuFP8u3xuz-uG5txaH6RX_ZNr0hCO-EDfu8-zq1tQyb9L6rdmJudjMXqBfD0lNMxqmP_44JgmfgyEl9Azif9ummvRd8dymGsypzzZT-nu8nD_w4Rnr0d3RtvWubo1paLAZZWx9rXAzmJdWX-PyBHO0d-ckpxB2NhTR9W6EC7GkfwSA7B7qwXMOHlaDHoPY7XL56Pg4RROZ1GkD5cOIRdhy-WAIEjrVTYOsggI19HgX4ErXbLvEkkXF_2SKUmDtKdaHTzjL0VOQtClnIF3CNwK_FLtJZ8XiW9w15jfNirx-7H8O2x4ykhgghOztfzJlrQuNrLpif1YjLFTiKLrt7BwXh7cu3pGtPE8GsVPTjEmmUCrNr4xJFRgbf9TozfQx1s5iMbUfnup0PZ98xZAMQbEQDftoy-VbvVYnsugzmdUXOPatxhxc6F5CWvfn_vlKKW4rvJnfeLcE-rlPbbJfz4p-jWr4y3tHvkTxQNfunJDcWg7zTSdP-iia2SiaRF_0G00]--></g></svg>